<svg xmlns="http://www.w3.org/2000/svg" xmlns:xlink="http://www.w3.org/1999/xlink" width="50" zoomAndPan="magnify" viewBox="0 0 37.5 37.499999" height="50" preserveAspectRatio="xMidYMid meet" version="1.0"><defs><clipPath id="5d190661df"><path d="M 0.398438 10 L 28 10 L 28 37.007812 L 0.398438 37.007812 Z M 0.398438 10 " clip-rule="nonzero"/></clipPath><clipPath id="6000cbb1a1"><path d="M 13 0.15625 L 24 0.15625 L 24 11 L 13 11 Z M 13 0.15625 " clip-rule="nonzero"/></clipPath><clipPath id="1931a309c8"><path d="M 23 7 L 36.667969 7 L 36.667969 21 L 23 21 Z M 23 7 " clip-rule="nonzero"/></clipPath></defs><g clip-path="url(#5d190661df)"><path fill="#000000" d="M 26.980469 23.414062 C 26.953125 23.390625 26.921875 23.371094 26.886719 23.351562 L 26.863281 23.339844 C 26.855469 23.335938 26.847656 23.332031 26.835938 23.328125 L 26.8125 23.320312 C 26.804688 23.316406 26.800781 23.316406 26.792969 23.3125 C 24.671875 22.609375 22.558594 21.875 20.464844 21.09375 C 18.871094 20.507812 17.550781 19.230469 16.917969 17.65625 C 16.871094 17.539062 16.828125 17.417969 16.785156 17.296875 C 16.246094 15.675781 15.542969 13.523438 15.003906 11.894531 C 14.941406 11.710938 14.761719 11.179688 14.707031 11.007812 C 14.707031 11.007812 14.679688 10.933594 14.679688 10.933594 C 14.628906 10.753906 14.507812 10.589844 14.339844 10.496094 C 14.074219 10.335938 13.714844 10.363281 13.476562 10.5625 C 13.386719 10.636719 13.3125 10.734375 13.265625 10.84375 C 13.042969 11.394531 12.824219 11.957031 12.609375 12.511719 C 12.023438 14.039062 11.414062 15.640625 10.84375 17.175781 C 10.574219 17.894531 10.164062 18.566406 9.644531 19.132812 C 9.0625 19.777344 8.339844 20.289062 7.542969 20.625 C 7.347656 20.710938 6.894531 20.875 6.6875 20.957031 C 4.96875 21.613281 2.734375 22.460938 1.027344 23.117188 C 0.546875 23.3125 0.402344 23.929688 0.738281 24.324219 C 0.824219 24.425781 0.945312 24.503906 1.070312 24.550781 C 3.167969 25.296875 5.304688 26.03125 7.40625 26.75 C 7.785156 26.882812 8.152344 27.046875 8.496094 27.25 C 9.546875 27.855469 10.40625 28.785156 10.933594 29.878906 C 11.007812 30.039062 11.082031 30.199219 11.144531 30.367188 C 11.921875 32.425781 12.6875 34.511719 13.40625 36.589844 C 13.425781 36.636719 13.445312 36.707031 13.464844 36.75 C 13.59375 37.046875 13.957031 37.160156 14.238281 37.015625 C 14.335938 36.964844 14.414062 36.886719 14.46875 36.792969 L 14.484375 36.769531 C 14.488281 36.761719 14.492188 36.75 14.496094 36.742188 L 14.507812 36.714844 L 14.523438 36.679688 C 15.339844 34.613281 16.195312 32.523438 17 30.453125 C 17.140625 30.085938 17.316406 29.734375 17.523438 29.40625 C 18.042969 28.578125 18.753906 27.875 19.589844 27.371094 C 19.859375 27.207031 20.144531 27.0625 20.4375 26.941406 C 22.425781 26.175781 24.445312 25.355469 26.417969 24.539062 L 26.707031 24.421875 L 26.8125 24.375 C 26.902344 24.339844 26.984375 24.285156 27.046875 24.210938 C 27.246094 23.976562 27.21875 23.605469 26.980469 23.414062 Z M 26.980469 23.414062 " fill-opacity="1" fill-rule="nonzero"/></g><g clip-path="url(#6000cbb1a1)"><path fill="#000000" d="M 13.863281 5.628906 C 13.898438 5.65625 13.9375 5.675781 13.976562 5.6875 C 14.574219 5.890625 15.175781 6.085938 15.773438 6.285156 C 16.054688 6.375 16.328125 6.503906 16.574219 6.664062 C 17.140625 7.027344 17.597656 7.5625 17.863281 8.179688 C 17.953125 8.390625 18.023438 8.609375 18.101562 8.824219 C 18.257812 9.273438 18.410156 9.722656 18.554688 10.171875 C 18.570312 10.214844 18.59375 10.253906 18.625 10.285156 C 18.753906 10.40625 18.96875 10.371094 19.050781 10.214844 C 19.308594 9.621094 19.558594 9.019531 19.800781 8.421875 C 20.148438 7.546875 20.828125 6.820312 21.671875 6.410156 C 21.71875 6.386719 21.769531 6.363281 21.820312 6.34375 C 22.140625 6.207031 22.804688 5.917969 23.136719 5.773438 L 23.558594 5.589844 C 23.574219 5.582031 23.601562 5.570312 23.617188 5.5625 C 23.761719 5.492188 23.78125 5.289062 23.65625 5.191406 C 23.636719 5.175781 23.609375 5.164062 23.585938 5.15625 C 22.984375 4.964844 22.386719 4.757812 21.796875 4.535156 C 20.875 4.199219 20.125 3.433594 19.796875 2.511719 C 19.773438 2.441406 19.75 2.371094 19.726562 2.296875 C 19.542969 1.695312 19.355469 1.066406 19.152344 0.46875 C 19.007812 0.15625 18.5625 0.175781 18.4375 0.496094 C 18.265625 0.925781 18.085938 1.40625 17.917969 1.84375 C 17.8125 2.109375 17.714844 2.40625 17.582031 2.660156 C 17.199219 3.402344 16.546875 4.003906 15.769531 4.3125 C 15.246094 4.519531 14.488281 4.808594 13.96875 5.015625 C 13.914062 5.039062 13.863281 5.070312 13.824219 5.113281 C 13.691406 5.261719 13.710938 5.503906 13.863281 5.628906 Z M 13.863281 5.628906 " fill-opacity="1" fill-rule="nonzero"/></g><g clip-path="url(#1931a309c8)"><path fill="#000000" d="M 36.414062 13.628906 C 35.652344 13.394531 34.894531 13.140625 34.148438 12.863281 C 33 12.441406 32.078125 11.476562 31.691406 10.320312 C 31.625 10.132812 31.507812 9.699219 31.449219 9.5 C 31.285156 8.9375 31.117188 8.371094 30.9375 7.8125 C 30.933594 7.796875 30.925781 7.773438 30.914062 7.753906 C 30.703125 7.285156 30.042969 7.316406 29.867188 7.796875 C 29.570312 8.53125 29.285156 9.265625 29.003906 10.007812 C 28.941406 10.167969 28.871094 10.328125 28.792969 10.480469 C 28.390625 11.25 27.761719 11.902344 26.996094 12.3125 C 26.878906 12.375 26.761719 12.429688 26.640625 12.484375 C 26.554688 12.519531 26.089844 12.703125 25.984375 12.742188 C 25.574219 12.90625 24.6875 13.253906 24.292969 13.414062 C 24.101562 13.503906 23.976562 13.71875 23.996094 13.929688 C 24.007812 14.132812 24.152344 14.320312 24.347656 14.378906 C 25.097656 14.628906 25.851562 14.863281 26.601562 15.101562 C 26.953125 15.210938 27.289062 15.363281 27.597656 15.5625 C 28.304688 16.003906 28.875 16.671875 29.207031 17.4375 C 29.230469 17.5 29.261719 17.566406 29.285156 17.632812 C 29.554688 18.375 29.804688 19.125 30.039062 19.878906 C 30.042969 19.898438 30.050781 19.929688 30.058594 19.945312 C 30.160156 20.222656 30.527344 20.277344 30.714844 20.058594 C 30.746094 20.023438 30.769531 19.976562 30.789062 19.933594 L 30.816406 19.867188 C 31.121094 19.164062 31.433594 18.460938 31.722656 17.75 C 31.789062 17.585938 31.867188 17.425781 31.953125 17.273438 C 32.035156 17.117188 32.128906 16.96875 32.230469 16.824219 C 32.726562 16.117188 33.414062 15.546875 34.199219 15.191406 C 34.914062 14.875 35.679688 14.519531 36.390625 14.199219 L 36.410156 14.191406 L 36.417969 14.1875 C 36.460938 14.167969 36.5 14.140625 36.53125 14.101562 C 36.664062 13.949219 36.605469 13.699219 36.414062 13.628906 Z M 36.414062 13.628906 " fill-opacity="1" fill-rule="nonzero"/></g></svg>